<svg width="117" height="74" viewBox="0 0 117 74" fill="none" xmlns="http://www.w3.org/2000/svg">
<circle opacity="0.04" cx="82" cy="37" r="35" fill="#F20823"/>
<path d="M72.8673 61C76.4756 61 79.4007 58.0749 79.4007 54.4667C79.4007 50.8584 76.4756 47.9333 72.8673 47.9333C69.2591 47.9333 66.334 50.8584 66.334 54.4667C66.334 58.0749 69.2591 61 72.8673 61Z" stroke="#F20823" stroke-linecap="round" stroke-linejoin="round"/>
<path d="M33.666 54.4667H66.3327" stroke="#F20823" stroke-linecap="round" stroke-linejoin="round"/>
<path d="M79.4 54.4666H88.0414C89.3474 54.4669 90.6235 54.0757 91.705 53.3435C92.7865 52.6114 93.6238 51.572 94.1087 50.3594L99 38.1333C99 36.4006 98.3117 34.7388 97.0864 33.5135C95.8612 32.2883 94.1994 31.6 92.4667 31.6H17.3333L4.67173 36.6655C3.58792 37.099 2.65886 37.8473 2.00439 38.8138C1.34993 39.7804 1.00009 40.9209 1 42.0882C1 48.3776 6.66222 46.692 20.6 54.4971" stroke="#F20823" stroke-linecap="round" stroke-linejoin="round"/>
<path d="M69.6001 31.6L59.8001 12H57.8401C44.6297 12 20.6001 20.1667 20.6001 31.6" stroke="#F20823" stroke-linecap="round" stroke-linejoin="round"/>
<path d="M27.1334 61C30.7417 61 33.6668 58.0749 33.6668 54.4667C33.6668 50.8584 30.7417 47.9333 27.1334 47.9333C23.5252 47.9333 20.6001 50.8584 20.6001 54.4667C20.6001 58.0749 23.5252 61 27.1334 61Z" stroke="#F20823" stroke-linecap="round" stroke-linejoin="round"/>
</svg>
