<svg width="117" height="76" viewBox="0 0 117 76" fill="none" xmlns="http://www.w3.org/2000/svg">
<circle opacity="0.04" cx="82" cy="38" r="35" fill="#F20823"/>
<path d="M75 42.9333V5.93333C75 4.62493 74.4803 3.37012 73.5551 2.44494C72.6299 1.51976 71.3751 1 70.0667 1H15.8C14.4916 1 13.2368 1.51976 12.3116 2.44494C11.3865 3.37012 10.8667 4.62493 10.8667 5.93333V18.2667" stroke="#F20823" stroke-linecap="round" stroke-linejoin="round"/>
<path d="M10.8667 15.8H75" stroke="#F20823" stroke-linecap="round" stroke-linejoin="round"/>
<path d="M60.2 28.1334H5.93333C3.20873 28.1334 1 30.3421 1 33.0667V70.0667C1 72.7913 3.20873 75 5.93333 75H60.2C62.9246 75 65.1333 72.7913 65.1333 70.0667V33.0667C65.1333 30.3421 62.9246 28.1334 60.2 28.1334Z" stroke="#F20823" stroke-linecap="round" stroke-linejoin="round"/>
<path d="M1 42.9333H65.1333" stroke="#F20823" stroke-linecap="round" stroke-linejoin="round"/>
<path d="M10.8667 57.7333H18.2667" stroke="#F20823" stroke-linecap="round" stroke-linejoin="round"/>
<path d="M44.1669 55.2667C43.3903 54.2312 42.3077 53.4664 41.0723 53.0805C39.8369 52.6946 38.5113 52.7072 37.2835 53.1164C36.0556 53.5257 34.9877 54.311 34.2309 55.3609C33.4741 56.4109 33.0669 57.6724 33.0669 58.9667C33.0669 60.2609 33.4741 61.5224 34.2309 62.5724C34.9877 63.6223 36.0556 64.4076 37.2835 64.8169C38.5113 65.2262 39.8369 65.2387 41.0723 64.8528C42.3077 64.4669 43.3903 63.7021 44.1669 62.6667C44.9435 63.7021 46.0261 64.4669 47.2615 64.8528C48.4969 65.2387 49.8224 65.2262 51.0503 64.8169C52.2782 64.4076 53.3461 63.6223 54.1029 62.5724C54.8597 61.5224 55.2669 60.2609 55.2669 58.9667C55.2669 57.6724 54.8597 56.4109 54.1029 55.3609C53.3461 54.311 52.2782 53.5257 51.0503 53.1164C49.8224 52.7072 48.4969 52.6946 47.2615 53.0805C46.0261 53.4664 44.9435 54.2312 44.1669 55.2667V55.2667Z" stroke="#F20823" stroke-linecap="round" stroke-linejoin="round"/>
</svg>
