<svg width="18" height="19" viewBox="0 0 18 19" fill="none" xmlns="http://www.w3.org/2000/svg">
<path fill-rule="evenodd" clip-rule="evenodd" d="M16.9896 0.691406H0.992778C0.444315 0.691406 0 1.13572 0 1.68418V17.6818C0 18.2295 0.444315 18.6738 0.992778 18.6738H9.6056V11.7101H7.26189V8.99628H9.6056V6.99499C9.6056 4.67226 11.024 3.4075 13.0964 3.4075C14.0892 3.4075 14.9419 3.48168 15.1906 3.51464V5.94227L13.7535 5.94302C12.6266 5.94302 12.4086 6.47874 12.4086 7.26397V8.99703H15.0962L14.7463 11.7109H12.4086V18.6738H16.9911C17.5381 18.6738 17.9824 18.2295 17.9824 17.681V1.68418C17.9824 1.13572 17.5381 0.691406 16.9896 0.691406Z" fill="#F20823"/>
</svg>
