<svg width="21" height="20" viewBox="0 0 21 20" fill="none" xmlns="http://www.w3.org/2000/svg">
<path d="M7.38232 10.1634C7.38232 8.35255 8.84994 6.88419 10.6608 6.88419C12.4717 6.88419 13.9401 8.35255 13.9401 10.1634C13.9401 11.9742 12.4717 13.4425 10.6608 13.4425C8.84994 13.4425 7.38232 11.9742 7.38232 10.1634ZM5.60958 10.1634C5.60958 12.9531 7.871 15.2144 10.6608 15.2144C13.4507 15.2144 15.7121 12.9531 15.7121 10.1634C15.7121 7.37364 13.4507 5.11232 10.6608 5.11232C7.871 5.11232 5.60958 7.37364 5.60958 10.1634ZM14.7315 4.91209C14.7315 5.56363 15.2599 6.09281 15.9123 6.09281C16.5639 6.09281 17.0931 5.56363 17.0931 4.91209C17.0931 4.26054 16.5647 3.73216 15.9123 3.73216C15.2599 3.73216 14.7315 4.26054 14.7315 4.91209ZM6.68626 18.1702C5.72718 18.1265 5.20593 17.9668 4.85948 17.8317C4.40021 17.6529 4.07283 17.44 3.72798 17.0959C3.38392 16.7519 3.17017 16.4245 2.99218 15.9653C2.8571 15.6188 2.69739 15.0976 2.65368 14.1386C2.60601 13.1017 2.59647 12.7902 2.59647 10.1634C2.59647 7.53653 2.6068 7.22586 2.65368 6.18816C2.69739 5.22912 2.8579 4.70868 2.99218 4.36145C3.17097 3.9022 3.38392 3.57484 3.72798 3.23C4.07204 2.88595 4.39941 2.67221 4.85948 2.49423C5.20593 2.35915 5.72718 2.19945 6.68626 2.15575C7.7232 2.10807 8.03469 2.09854 10.6608 2.09854C13.2878 2.09854 13.5984 2.10887 14.6362 2.15575C15.5953 2.19945 16.1157 2.35995 16.463 2.49423C16.9222 2.67221 17.2496 2.88595 17.5945 3.23C17.9385 3.57404 18.1515 3.9022 18.3303 4.36145C18.4653 4.70788 18.6251 5.22912 18.6688 6.18816C18.7164 7.22586 18.726 7.53653 18.726 10.1634C18.726 12.7894 18.7164 13.1009 18.6688 14.1386C18.6251 15.0976 18.4645 15.6188 18.3303 15.9653C18.1515 16.4245 17.9385 16.7519 17.5945 17.0959C17.2504 17.44 16.9222 17.6529 16.463 17.8317C16.1165 17.9668 15.5953 18.1265 14.6362 18.1702C13.5992 18.2178 13.2878 18.2274 10.6608 18.2274C8.03469 18.2274 7.7232 18.2178 6.68626 18.1702V18.1702ZM6.60521 0.386252C5.55793 0.433926 4.8428 0.59999 4.21745 0.843126C3.57065 1.09421 3.02238 1.4311 2.4749 1.97776C1.92822 2.52442 1.59131 3.07267 1.34022 3.72024C1.09707 4.34556 0.931001 5.06067 0.883325 6.1079C0.834855 7.15673 0.82373 7.49203 0.82373 10.1634C0.82373 12.8347 0.834855 13.17 0.883325 14.2188C0.931001 15.266 1.09707 15.9812 1.34022 16.6065C1.59131 17.2532 1.92742 17.8023 2.4749 18.3489C3.02158 18.8956 3.56985 19.2317 4.21745 19.4836C4.84359 19.7267 5.55793 19.8928 6.60521 19.9405C7.65487 19.9881 7.98939 20.0001 10.6608 20.0001C13.333 20.0001 13.6676 19.9889 14.7164 19.9405C15.7637 19.8928 16.4789 19.7267 17.1042 19.4836C17.751 19.2317 18.2993 18.8956 18.8467 18.3489C19.3934 17.8023 19.7295 17.2532 19.9814 16.6065C20.2246 15.9812 20.3914 15.266 20.4383 14.2188C20.486 13.1692 20.4971 12.8347 20.4971 10.1634C20.4971 7.49203 20.486 7.15673 20.4383 6.1079C20.3906 5.06067 20.2246 4.34556 19.9814 3.72024C19.7295 3.07347 19.3934 2.52522 18.8467 1.97776C18.3001 1.4311 17.751 1.09421 17.105 0.843126C16.4789 0.59999 15.7637 0.433132 14.7172 0.386252C13.6684 0.338579 13.333 0.32666 10.6616 0.32666C7.98939 0.32666 7.65487 0.337784 6.60521 0.386252" fill="#F20823"/>
</svg>
