<svg width="117" height="76" viewBox="0 0 117 76" fill="none" xmlns="http://www.w3.org/2000/svg">
<path d="M1 75H72.5333" stroke="#F20823" stroke-linecap="round" stroke-linejoin="round"/>
<path d="M7.57755 60.2H16.6253C17.0614 60.2 17.4797 60.3733 17.7881 60.6817C18.0965 60.9901 18.2697 61.4083 18.2697 61.8445V75H5.93311V61.8445C5.93311 61.4083 6.10636 60.9901 6.41475 60.6817C6.72314 60.3733 7.14142 60.2 7.57755 60.2Z" stroke="#F20823" stroke-linecap="round" stroke-linejoin="round"/>
<path d="M32.2445 30.6H41.2923C41.7284 30.6 42.1467 30.7732 42.4551 31.0816C42.7635 31.39 42.9367 31.8083 42.9367 32.2444V75H30.6001V32.2444C30.6001 31.8083 30.7734 31.39 31.0817 31.0816C31.3901 30.7732 31.8084 30.6 32.2445 30.6Z" stroke="#F20823" stroke-linecap="round" stroke-linejoin="round"/>
<path d="M56.9112 45.4H65.9589C66.395 45.4 66.8133 45.5733 67.1217 45.8817C67.4301 46.1901 67.6034 46.6083 67.6034 47.0445V75H55.27V47.0445C55.27 46.6089 55.4428 46.1911 55.7505 45.8828C56.0582 45.5745 56.4756 45.4009 56.9112 45.4Z" stroke="#F20823" stroke-linecap="round" stroke-linejoin="round"/>
<path d="M21.1748 15.3757L7.96338 28.574" stroke="#F20823" stroke-linecap="round" stroke-linejoin="round"/>
<path d="M45.6047 19.3355L30.2324 15.2244" stroke="#F20823" stroke-linecap="round" stroke-linejoin="round"/>
<path d="M65.6037 8.03491L53.8262 17.2438" stroke="#F20823" stroke-linecap="round" stroke-linejoin="round"/>
<path d="M25.6667 18.2699C28.3913 18.2699 30.6001 16.0612 30.6001 13.3366C30.6001 10.612 28.3913 8.40326 25.6667 8.40326C22.9421 8.40326 20.7334 10.612 20.7334 13.3366C20.7334 16.0612 22.9421 18.2699 25.6667 18.2699Z" stroke="#F20823" stroke-linecap="round" stroke-linejoin="round"/>
<path d="M70.0701 10.8667C72.7947 10.8667 75.0034 8.65794 75.0034 5.93333C75.0034 3.20873 72.7947 1 70.0701 1C67.3454 1 65.1367 3.20873 65.1367 5.93333C65.1367 8.65794 67.3454 10.8667 70.0701 10.8667Z" stroke="#F20823" stroke-linecap="round" stroke-linejoin="round"/>
<path d="M50.3367 25.6667C53.0613 25.6667 55.27 23.4579 55.27 20.7333C55.27 18.0087 53.0613 15.8 50.3367 15.8C47.612 15.8 45.4033 18.0087 45.4033 20.7333C45.4033 23.4579 47.612 25.6667 50.3367 25.6667Z" stroke="#F20823" stroke-linecap="round" stroke-linejoin="round"/>
<path d="M5.93333 38.0033C8.65794 38.0033 10.8667 35.7945 10.8667 33.0699C10.8667 30.3453 8.65794 28.1366 5.93333 28.1366C3.20873 28.1366 1 30.3453 1 33.0699C1 35.7945 3.20873 38.0033 5.93333 38.0033Z" stroke="#F20823" stroke-linecap="round" stroke-linejoin="round"/>
<circle opacity="0.04" cx="82" cy="38" r="35" fill="#F20823"/>
</svg>
