<svg width="21" height="20" viewBox="0 0 21 20" fill="none" xmlns="http://www.w3.org/2000/svg">
<path fill-rule="evenodd" clip-rule="evenodd" d="M0.49707 2.28517C0.49707 1.62279 0.727844 1.07633 1.18937 0.645809C1.6509 0.215263 2.25091 0 2.98936 0C3.71463 0 4.30143 0.211944 4.74978 0.635873C5.21131 1.07304 5.44208 1.64266 5.44208 2.34478C5.44208 2.98065 5.21792 3.51054 4.76956 3.93446C4.30803 4.37163 3.70144 4.59021 2.9498 4.59021H2.93002C2.20474 4.59021 1.61795 4.37163 1.16959 3.93446C0.721238 3.4973 0.49707 2.94753 0.49707 2.28517ZM0.754035 19.6728V6.39893H5.14521V19.6728H0.754035ZM11.9698 19.6723H7.57866C7.60503 15.6716 7.61823 12.5651 7.61823 10.3528C7.61823 8.14047 7.60503 6.82236 7.57866 6.39845H11.9698V8.2862L11.9501 8.32594H11.9698V8.2862C12.9193 6.81574 14.2445 6.08051 15.9456 6.08051C17.4621 6.08051 18.6819 6.58723 19.6049 7.60065C20.528 8.61407 20.9896 10.1011 20.9896 12.0617V19.6723H16.5984V12.5783C16.5984 10.578 15.8599 9.57782 14.383 9.57782C13.816 9.57782 13.3446 9.73347 12.9687 10.0448C12.5929 10.3561 12.3127 10.737 12.1281 11.1874C12.0226 11.4391 11.9698 11.7967 11.9698 12.2604V19.6723Z" fill="#F20823"/>
</svg>
