<svg width="18" height="22" viewBox="0 0 18 22" fill="none" xmlns="http://www.w3.org/2000/svg">
<path d="M9.03617 13.0543C11.2553 13.0543 13.0543 11.2553 13.0543 9.03617C13.0543 6.81703 11.2553 5.01807 9.03617 5.01807C6.81703 5.01807 5.01807 6.81703 5.01807 9.03617C5.01807 11.2553 6.81703 13.0543 9.03617 13.0543Z" stroke="#F20823" stroke-width="1.5" stroke-linecap="round" stroke-linejoin="round"/>
<path d="M17.0724 9.03621C17.0724 16.0902 10.8828 20.0467 9.36748 20.9119C9.26645 20.9696 9.15211 21 9.03576 21C8.91941 21 8.80507 20.9696 8.70405 20.9119C7.18877 20.0458 1 16.0884 1 9.03621C1 6.90487 1.84667 4.86083 3.35375 3.35375C4.86083 1.84667 6.90487 1 9.03621 1C11.1675 1 13.2116 1.84667 14.7187 3.35375C16.2257 4.86083 17.0724 6.90487 17.0724 9.03621Z" stroke="#F20823" stroke-width="1.5" stroke-linecap="round" stroke-linejoin="round"/>
</svg>
