<svg width="152" height="37" viewBox="0 0 152 37" fill="none" xmlns="http://www.w3.org/2000/svg">
<path opacity="0.5" d="M8.53 14.8066C8.19334 14.8066 7.87046 14.9404 7.63241 15.1784L0.897592 21.9132C0.401866 22.409 0.401866 23.2127 0.897592 23.7084L13.1231 35.934C13.6189 36.4297 14.4226 36.4297 14.9183 35.934L19.1395 31.713C19.6353 31.2173 19.6353 30.4136 19.1396 29.9178L12.9302 23.7085C12.4345 23.2127 12.4345 22.409 12.9302 21.9132L17.8701 16.9736C18.6698 16.174 18.1034 14.8066 16.9725 14.8066H8.53Z" fill="#F20823"/>
<path d="M16.7134 20.6895C15.9137 21.4891 16.4801 22.8564 17.611 22.8564H26.0532C26.3899 22.8564 26.7127 22.7227 26.9508 22.4847L33.6859 15.7498C34.1817 15.2541 34.1817 14.4504 33.686 13.9546L21.4605 1.72914C20.9648 1.23341 20.161 1.23341 19.6653 1.72914L15.444 5.95045C14.9483 6.44618 14.9483 7.24991 15.444 7.74563L21.653 13.9546C22.1487 14.4504 22.1487 15.2541 21.653 15.7498L16.7134 20.6895Z" fill="#F20823"/>
<path d="M56.2537 10.7205C54.4709 10.7205 52.9852 11.1661 51.7224 11.9461V4.5921H46.634V31.334H51.091V30.1826C52.5024 31.2597 54.2852 31.8911 56.5137 31.8911C62.0478 31.8911 65.7619 27.3227 65.7619 21.3058C65.7619 15.1774 62.0106 10.7205 56.2537 10.7205ZM55.6966 27.397C52.3167 27.397 51.091 24.9457 51.091 21.3058C51.091 17.6659 52.3538 15.2146 55.5109 15.2146C58.8907 15.2146 60.4135 17.963 60.4135 21.3058C60.4135 24.6857 58.965 27.397 55.6966 27.397Z" fill="#0A1023"/>
<path d="M85.4849 14.3603C84.0736 11.6861 81.1765 10.7205 77.6481 10.7205C72.8197 10.7205 70.0712 13.0232 69.0684 16.3288L73.6368 17.7773C74.2682 15.9574 76.1624 15.326 77.6481 15.326C80.0251 15.326 81.1022 16.1803 81.3251 18.0373C77.5738 18.5945 74.6768 19.0402 72.7454 19.7458C69.5141 20.9344 68.3627 23.0143 68.3627 25.7999C68.3627 29.1426 70.7397 31.8911 75.0482 31.8911C78.1309 31.8911 80.0994 30.9997 81.8822 28.8827V31.334H86.302V19.0773C86.302 17.2574 86.2649 15.846 85.4849 14.3603ZM80.768 25.2428C80.3594 26.097 78.9109 27.917 76.1253 27.917C74.3796 27.917 73.3025 27.0999 73.3025 25.7256C73.3025 24.7228 73.8968 24.0171 75.3824 23.4228C76.5338 23.0143 77.9081 22.7172 81.2879 22.16C81.2508 23.1257 81.1765 24.3885 80.768 25.2428Z" fill="#0A1023"/>
<path d="M101.716 10.6833C98.819 10.6833 96.6648 11.7233 95.2163 13.3575V11.2776H90.7222V31.334H95.8477V21.1572C95.8477 16.1803 98.3733 15.4374 100.119 15.4374C104.427 15.4374 104.427 20.043 104.427 21.8629V31.334H109.553V20.0801C109.553 18.4087 109.553 10.6833 101.716 10.6833Z" fill="#0A1023"/>
<path d="M122.477 31.8911C127.12 31.8911 130.426 29.5141 131.577 25.2428L126.414 24.1657C125.82 26.097 124.743 27.1741 122.477 27.1741C119.432 27.1741 117.872 24.7971 117.872 21.3058C117.872 17.963 119.283 15.4374 122.477 15.4374C124.334 15.4374 125.931 16.6631 126.526 18.743L131.577 17.4059C130.686 13.2832 127.269 10.7205 122.552 10.7205C116.423 10.7205 112.523 15.2146 112.523 21.3058C112.523 27.3227 116.238 31.8911 122.477 31.8911Z" fill="#0A1023"/>
<path d="M150.565 14.3603C149.154 11.6861 146.257 10.7205 142.728 10.7205C137.9 10.7205 135.152 13.0232 134.149 16.3288L138.717 17.7773C139.349 15.9574 141.243 15.326 142.728 15.326C145.105 15.326 146.183 16.1803 146.405 18.0373C142.654 18.5945 139.757 19.0402 137.826 19.7458C134.594 20.9344 133.443 23.0143 133.443 25.7999C133.443 29.1426 135.82 31.8911 140.129 31.8911C143.211 31.8911 145.18 30.9997 146.963 28.8827V31.334H151.382V19.0773C151.382 17.2574 151.345 15.846 150.565 14.3603ZM145.848 25.2428C145.44 26.097 143.991 27.917 141.206 27.917C139.46 27.917 138.383 27.0999 138.383 25.7256C138.383 24.7228 138.977 24.0171 140.463 23.4228C141.614 23.0143 142.988 22.7172 146.368 22.16C146.331 23.1257 146.257 24.3885 145.848 25.2428Z" fill="#0A1023"/>
</svg>
