<svg width="24" height="25" viewBox="0 0 24 25" fill="none" xmlns="http://www.w3.org/2000/svg">
<path d="M3.93059 11.8999H12.3638C12.5583 11.8999 12.7448 11.9772 12.8824 12.1147C13.0199 12.2522 13.0971 12.4387 13.0971 12.6332V23.9998H3.19727V12.6332C3.19727 12.4387 3.27453 12.2522 3.41205 12.1147C3.54958 11.9772 3.7361 11.8999 3.93059 11.8999Z" stroke="#F20823" stroke-width="2" stroke-linecap="round" stroke-linejoin="round"/>
<path d="M13.0972 23.9991H20.7971V6.3993C20.7971 6.10757 20.6812 5.82778 20.4749 5.6215C20.2687 5.41521 19.9889 5.29932 19.6971 5.29932H9.79725C9.50552 5.29932 9.22573 5.41521 9.01944 5.6215C8.81316 5.82778 8.69727 6.10757 8.69727 6.3993V11.8992" stroke="#F20823" stroke-width="2" stroke-linecap="round" stroke-linejoin="round"/>
<path d="M3.19997 24H1" stroke="#F20823" stroke-width="2" stroke-linecap="round" stroke-linejoin="round"/>
<path d="M22.9998 24H20.7998" stroke="#F20823" stroke-width="2" stroke-linecap="round" stroke-linejoin="round"/>
<path d="M8.69727 16.2993H13.0972" stroke="#F20823" stroke-width="2" stroke-linecap="round" stroke-linejoin="round"/>
<path d="M17.5 10.8999H20.8" stroke="#F20823" stroke-width="2" stroke-linecap="round" stroke-linejoin="round"/>
<path d="M17.5 16.2993H20.8" stroke="#F20823" stroke-width="2" stroke-linecap="round" stroke-linejoin="round"/>
<path d="M17.5 4.29996V1" stroke="#F20823" stroke-width="2" stroke-linecap="round" stroke-linejoin="round"/>
</svg>
