<svg width="143" height="31" viewBox="0 0 143 31" fill="none" xmlns="http://www.w3.org/2000/svg">
<path d="M141.373 14.5781L137.997 14.7859C137.939 14.4973 137.815 14.2377 137.625 14.0069C137.435 13.7703 137.184 13.5828 136.872 13.4443C136.566 13.3 136.2 13.2279 135.773 13.2279C135.201 13.2279 134.72 13.3491 134.327 13.5914C133.935 13.828 133.739 14.1454 133.739 14.5435C133.739 14.8609 133.866 15.1292 134.12 15.3484C134.373 15.5677 134.809 15.7437 135.426 15.8764L137.833 16.3611C139.125 16.6265 140.089 17.0535 140.724 17.6421C141.358 18.2307 141.676 19.0039 141.676 19.9617C141.676 20.833 141.419 21.5976 140.905 22.2554C140.398 22.9132 139.699 23.4267 138.811 23.796C137.928 24.1595 136.909 24.3413 135.755 24.3413C133.995 24.3413 132.593 23.9749 131.549 23.2421C130.51 22.5035 129.902 21.4995 129.723 20.23L133.349 20.0396C133.459 20.5762 133.724 20.9859 134.146 21.2687C134.567 21.5456 135.106 21.6841 135.764 21.6841C136.41 21.6841 136.93 21.56 137.322 21.3119C137.72 21.058 137.922 20.732 137.928 20.3339C137.922 19.9992 137.781 19.7251 137.504 19.5116C137.227 19.2924 136.8 19.125 136.223 19.0096L133.92 18.5509C132.622 18.2912 131.656 17.8412 131.021 17.2007C130.392 16.5602 130.078 15.7437 130.078 14.7512C130.078 13.8972 130.308 13.1615 130.77 12.5441C131.237 11.9267 131.892 11.4507 132.735 11.116C133.583 10.7813 134.575 10.614 135.712 10.614C137.391 10.614 138.713 10.9689 139.676 11.6786C140.646 12.3883 141.211 13.3549 141.373 14.5781Z" fill="#BDC2D1"/>
<path d="M127.686 14.5781L124.311 14.7859C124.253 14.4973 124.129 14.2377 123.938 14.0069C123.748 13.7703 123.497 13.5828 123.185 13.4443C122.88 13.3 122.513 13.2279 122.086 13.2279C121.515 13.2279 121.033 13.3491 120.641 13.5914C120.248 13.828 120.052 14.1454 120.052 14.5435C120.052 14.8609 120.179 15.1292 120.433 15.3484C120.687 15.5677 121.123 15.7437 121.74 15.8764L124.146 16.3611C125.439 16.6265 126.402 17.0535 127.037 17.6421C127.672 18.2307 127.989 19.0039 127.989 19.9617C127.989 20.833 127.732 21.5976 127.219 22.2554C126.711 22.9132 126.013 23.4267 125.124 23.796C124.241 24.1595 123.223 24.3413 122.069 24.3413C120.309 24.3413 118.907 23.9749 117.862 23.2421C116.824 22.5035 116.215 21.4995 116.036 20.23L119.663 20.0396C119.772 20.5762 120.038 20.9859 120.459 21.2687C120.88 21.5456 121.42 21.6841 122.078 21.6841C122.724 21.6841 123.243 21.56 123.635 21.3119C124.034 21.058 124.236 20.732 124.241 20.3339C124.236 19.9992 124.094 19.7251 123.817 19.5116C123.54 19.2924 123.113 19.125 122.536 19.0096L120.234 18.5509C118.936 18.2912 117.969 17.8412 117.334 17.2007C116.705 16.5602 116.391 15.7437 116.391 14.7512C116.391 13.8972 116.622 13.1615 117.083 12.5441C117.551 11.9267 118.206 11.4507 119.048 11.116C119.896 10.7813 120.889 10.614 122.026 10.614C123.705 10.614 125.026 10.9689 125.99 11.6786C126.959 12.3883 127.525 13.3549 127.686 14.5781Z" fill="#BDC2D1"/>
<path d="M108.117 24.3413C106.749 24.3413 105.572 24.0643 104.585 23.5104C103.605 22.9507 102.849 22.1601 102.318 21.1388C101.787 20.1117 101.521 18.8971 101.521 17.495C101.521 16.1274 101.787 14.9272 102.318 13.8944C102.849 12.8615 103.596 12.0566 104.559 11.4795C105.529 10.9025 106.666 10.614 107.97 10.614C108.847 10.614 109.663 10.7554 110.419 11.0381C111.181 11.3151 111.844 11.7334 112.41 12.2931C112.981 12.8528 113.425 13.5568 113.743 14.405C114.06 15.2475 114.219 16.2342 114.219 17.3651V18.3778H102.993V16.0928H110.748C110.748 15.5619 110.633 15.0917 110.402 14.682C110.171 14.2723 109.851 13.9521 109.441 13.7213C109.037 13.4847 108.567 13.3664 108.03 13.3664C107.471 13.3664 106.974 13.4962 106.542 13.7559C106.115 14.0098 105.78 14.3531 105.538 14.7859C105.295 15.2128 105.171 15.6889 105.165 16.214V18.3864C105.165 19.0443 105.287 19.6126 105.529 20.0915C105.777 20.5705 106.126 20.9398 106.576 21.1994C107.026 21.4591 107.56 21.5889 108.177 21.5889C108.587 21.5889 108.962 21.5312 109.303 21.4158C109.643 21.3004 109.934 21.1273 110.177 20.8965C110.419 20.6657 110.604 20.3829 110.731 20.0483L114.141 20.2733C113.968 21.0927 113.613 21.8082 113.076 22.4198C112.545 23.0257 111.859 23.4988 111.016 23.8393C110.18 24.1739 109.213 24.3413 108.117 24.3413Z" fill="#BDC2D1"/>
<path d="M90.5836 16.3957V24.0816H86.8965V10.7871H90.4105V13.1327H90.5663C90.8606 12.3595 91.354 11.7479 92.0464 11.2978C92.7388 10.8419 93.5784 10.614 94.5651 10.614C95.4883 10.614 96.2932 10.816 96.9799 11.2199C97.6665 11.6238 98.2003 12.2008 98.5811 12.9509C98.9619 13.6953 99.1524 14.5839 99.1524 15.6168V24.0816H95.4652V16.2746C95.471 15.461 95.2632 14.8262 94.842 14.3704C94.4208 13.9088 93.8409 13.678 93.1023 13.678C92.6061 13.678 92.1675 13.7847 91.7867 13.9982C91.4117 14.2117 91.1174 14.5233 90.9039 14.933C90.6962 15.3369 90.5894 15.8245 90.5836 16.3957Z" fill="#BDC2D1"/>
<path d="M80.2557 24.0817V10.7872H83.9428V24.0817H80.2557ZM82.1079 9.07344C81.5597 9.07344 81.0895 8.89168 80.6971 8.52816C80.3105 8.15887 80.1172 7.71745 80.1172 7.2039C80.1172 6.69613 80.3105 6.26048 80.6971 5.89696C81.0895 5.52766 81.5597 5.34302 82.1079 5.34302C82.6561 5.34302 83.1235 5.52766 83.5101 5.89696C83.9024 6.26048 84.0986 6.69613 84.0986 7.2039C84.0986 7.71745 83.9024 8.15887 83.5101 8.52816C83.1235 8.89168 82.6561 9.07344 82.1079 9.07344Z" fill="#BDC2D1"/>
<path d="M77.6305 14.5781L74.2549 14.7859C74.1972 14.4973 74.0732 14.2377 73.8827 14.0069C73.6923 13.7703 73.4413 13.5828 73.1297 13.4443C72.8239 13.3 72.4575 13.2279 72.0305 13.2279C71.4593 13.2279 70.9774 13.3491 70.5851 13.5914C70.1927 13.828 69.9965 14.1454 69.9965 14.5435C69.9965 14.8609 70.1235 15.1292 70.3773 15.3484C70.6312 15.5677 71.0669 15.7437 71.6843 15.8764L74.0905 16.3611C75.383 16.6265 76.3466 17.0535 76.9813 17.6421C77.616 18.2307 77.9334 19.0039 77.9334 19.9617C77.9334 20.833 77.6766 21.5976 77.1631 22.2554C76.6553 22.9132 75.9571 23.4267 75.0685 23.796C74.1857 24.1595 73.1672 24.3413 72.0132 24.3413C70.2533 24.3413 68.8511 23.9749 67.8067 23.2421C66.7681 22.5035 66.1593 21.4995 65.9805 20.23L69.607 20.0396C69.7167 20.5762 69.9821 20.9859 70.4033 21.2687C70.8245 21.5456 71.364 21.6841 72.0218 21.6841C72.6681 21.6841 73.1874 21.56 73.5798 21.3119C73.9779 21.058 74.1799 20.732 74.1857 20.3339C74.1799 19.9992 74.0385 19.7251 73.7616 19.5116C73.4846 19.2924 73.0576 19.125 72.4806 19.0096L70.1783 18.5509C68.88 18.2912 67.9135 17.8412 67.2788 17.2007C66.6498 16.5602 66.3353 15.7437 66.3353 14.7512C66.3353 13.8972 66.5661 13.1615 67.0278 12.5441C67.4951 11.9267 68.1501 11.4507 68.9925 11.116C69.8407 10.7813 70.8332 10.614 71.9699 10.614C73.649 10.614 74.9704 10.9689 75.934 11.6786C76.9034 12.3883 77.4689 13.3549 77.6305 14.5781Z" fill="#BDC2D1"/>
<path d="M59.9327 18.4213V10.7874H63.6198V24.0819H60.0798V21.667H59.9413C59.6413 22.446 59.1422 23.0721 58.444 23.5452C57.7515 24.0184 56.9062 24.255 55.908 24.255C55.0194 24.255 54.2375 24.053 53.5624 23.6491C52.8873 23.2452 52.3593 22.671 51.9785 21.9267C51.6034 21.1823 51.413 20.2908 51.4072 19.2522V10.7874H55.0944V18.5944C55.1001 19.3792 55.3108 19.9995 55.7262 20.4553C56.1417 20.9111 56.6985 21.1391 57.3967 21.1391C57.841 21.1391 58.2564 21.0381 58.643 20.8361C59.0296 20.6284 59.3412 20.3226 59.5778 19.9187C59.8202 19.5148 59.9384 19.0156 59.9327 18.4213Z" fill="#BDC2D1"/>
<path d="M35.9814 24.0817V6.35571H39.6686V13.0203H39.7811C39.9427 12.6625 40.1764 12.299 40.4822 11.9297C40.7938 11.5546 41.1977 11.2431 41.6939 10.9949C42.1959 10.7411 42.8191 10.6141 43.5635 10.6141C44.5329 10.6141 45.4272 10.868 46.2466 11.3758C47.066 11.8778 47.7209 12.6366 48.2113 13.6521C48.7018 14.6619 48.947 15.9284 48.947 17.4518C48.947 18.9347 48.7076 20.1868 48.2287 21.2082C47.7555 22.2237 47.1092 22.994 46.2899 23.5191C45.4763 24.0384 44.5646 24.2981 43.5548 24.2981C42.8393 24.2981 42.2306 24.1798 41.7285 23.9432C41.2323 23.7067 40.8255 23.4095 40.5082 23.0517C40.1908 22.6882 39.9484 22.3218 39.7811 21.9525H39.6167V24.0817H35.9814ZM39.5907 17.4345C39.5907 18.225 39.7003 18.9145 39.9196 19.5031C40.1389 20.0916 40.4562 20.5504 40.8717 20.8793C41.2871 21.2024 41.792 21.364 42.3863 21.364C42.9864 21.364 43.4942 21.1995 43.9097 20.8706C44.3251 20.5359 44.6396 20.0743 44.8531 19.4858C45.0724 18.8914 45.182 18.2077 45.182 17.4345C45.182 16.667 45.0753 15.9919 44.8618 15.4091C44.6483 14.8263 44.3338 14.3705 43.9183 14.0416C43.5029 13.7127 42.9922 13.5482 42.3863 13.5482C41.7862 13.5482 41.2785 13.7069 40.863 14.0243C40.4533 14.3416 40.1389 14.7917 39.9196 15.3745C39.7003 15.9573 39.5907 16.6439 39.5907 17.4345Z" fill="#BDC2D1"/>
<path fill-rule="evenodd" clip-rule="evenodd" d="M14.9267 11.4923L18.9152 15.4808L15.1175 19.2784L11.1291 15.2899L14.9267 11.4923ZM10.8374 7.40298L8.33676 4.90235C8.19412 4.75971 8.19412 4.52845 8.33676 4.38581L11.9095 0.813034C12.0522 0.670395 12.2834 0.670395 12.4261 0.813034L24.6402 13.0272C25.9953 14.3823 25.9953 16.5793 24.6402 17.9344L19.2069 23.3677L21.7075 25.8684C21.8501 26.011 21.8501 26.2423 21.7075 26.3849L18.1347 29.9577C17.9921 30.1003 17.7608 30.1003 17.6182 29.9577L5.40401 17.7435C4.04893 16.3885 4.04892 14.1914 5.40401 12.8364L10.8374 7.40298Z" fill="#BDC2D1"/>
</svg>
