<svg width="120" height="28" viewBox="0 0 120 28" fill="none" xmlns="http://www.w3.org/2000/svg">
<path d="M115.184 22.4273C115.509 21.9236 115.696 21.3711 115.745 20.7699C115.794 20.1687 115.818 19.5756 115.818 18.9907C115.347 19.5919 114.77 20.0143 114.087 20.2581C113.405 20.5018 112.666 20.6237 111.869 20.6237C110.943 20.6237 110.139 20.4856 109.456 20.2093C108.79 19.9331 108.262 19.5106 107.872 18.9419C107.482 18.422 107.214 17.8126 107.068 17.1139C106.922 16.399 106.849 15.6272 106.849 14.7985V7.58398H110.285V14.3841C110.285 14.8228 110.318 15.2534 110.383 15.6759C110.464 16.0821 110.626 16.4234 110.87 16.6996C111.26 17.2845 111.967 17.577 112.991 17.577C113.478 17.577 113.933 17.4795 114.356 17.2845C114.778 17.0733 115.111 16.7483 115.355 16.3096C115.566 15.9359 115.696 15.5459 115.745 15.1397C115.794 14.7172 115.818 14.2623 115.818 13.7748V7.58398H119.279V18.1376C119.279 18.7226 119.271 19.3238 119.255 19.9412C119.255 20.5424 119.206 21.1355 119.108 21.7205C119.027 22.3054 118.873 22.8741 118.645 23.4266C118.418 23.9791 118.101 24.4909 117.695 24.9621C117.126 25.6121 116.378 26.132 115.452 26.522C114.542 26.912 113.446 27.0988 112.162 27.0826C111.219 27.0988 110.285 26.9688 109.359 26.6926C108.433 26.4326 107.58 26.0508 106.8 25.5471L107.897 22.6223C108.319 22.931 108.88 23.2154 109.578 23.4753C110.293 23.7353 111.13 23.8653 112.089 23.8653C112.869 23.8653 113.502 23.7353 113.99 23.4753C114.494 23.2316 114.892 22.8823 115.184 22.4273Z" fill="#BDC2D1"/>
<path d="M99.3331 17.5771C99.983 17.5771 100.495 17.4227 100.869 17.114C101.259 16.8052 101.494 16.4559 101.575 16.0659H105.183C105.069 16.8946 104.833 17.5933 104.476 18.162C104.118 18.7307 103.671 19.2019 103.135 19.5757C102.615 19.9494 102.022 20.2175 101.356 20.38C100.69 20.5425 99.9993 20.6237 99.2843 20.6237C98.2119 20.6237 97.2776 20.4775 96.4814 20.185C95.7014 19.8763 95.0515 19.4375 94.5315 18.8688C94.0116 18.2839 93.6135 17.5852 93.3372 16.7727C93.0773 15.9441 92.9473 15.0179 92.9473 13.9942C92.9473 13.003 93.0935 12.0931 93.386 11.2644C93.6785 10.4357 94.0928 9.72887 94.629 9.14391C95.1815 8.55895 95.8558 8.11211 96.652 7.80338C97.4482 7.47841 98.3581 7.31592 99.3818 7.31592C100.129 7.31592 100.828 7.40529 101.478 7.58402C102.144 7.76276 102.729 8.03899 103.233 8.41271C103.753 8.78644 104.175 9.26578 104.5 9.85074C104.841 10.4194 105.069 11.1019 105.183 11.8981H101.575C101.494 11.5081 101.25 11.1588 100.844 10.85C100.454 10.5413 99.9424 10.3869 99.3087 10.3869C98.7725 10.3869 98.3094 10.4844 97.9194 10.6794C97.5294 10.8744 97.2207 11.1425 96.9932 11.4837C96.7657 11.825 96.6033 12.2149 96.5058 12.6537C96.4083 13.0924 96.3595 13.5555 96.3595 14.0429C96.3595 14.5629 96.4164 15.0422 96.5301 15.481C96.6439 15.9034 96.8145 16.2772 97.042 16.6021C97.2695 16.9109 97.5701 17.1546 97.9438 17.3333C98.3338 17.4958 98.7968 17.5771 99.3331 17.5771Z" fill="#BDC2D1"/>
<path d="M82.4835 9.21709C83.5234 7.96593 84.807 7.33223 86.3344 7.31598C87.1631 7.29973 87.8943 7.43785 88.528 7.73033C89.1617 8.00656 89.6736 8.3884 90.0635 8.87587C90.5348 9.44458 90.8597 10.1108 91.0385 10.8745C91.2172 11.6219 91.3066 12.4587 91.3066 13.3849V20.4288H87.8456V13.653C87.8456 13.1981 87.7968 12.7675 87.6993 12.3612C87.6181 11.9388 87.4719 11.5813 87.2606 11.2888C87.0494 10.9801 86.765 10.7526 86.4076 10.6064C86.0663 10.4601 85.6764 10.387 85.2376 10.387C84.6852 10.4033 84.214 10.5251 83.824 10.7526C83.4503 10.9801 83.1659 11.2726 82.9709 11.63C82.7759 11.9713 82.6378 12.3612 82.5566 12.8C82.4916 13.2224 82.4591 13.653 82.4591 14.0917V20.4288H79.0225V7.58409H82.3129L82.4835 9.21709Z" fill="#BDC2D1"/>
<path d="M71.2931 17.8208C71.7805 17.8208 72.1949 17.7477 72.5361 17.6014C72.8936 17.4389 73.1861 17.179 73.4135 16.8215H77.0208C76.842 17.4877 76.5658 18.0645 76.1921 18.552C75.8346 19.0395 75.3959 19.4376 74.8759 19.7463C74.3722 20.055 73.8116 20.2825 73.1942 20.4287C72.5767 20.5587 71.9268 20.6237 71.2443 20.6237C69.1645 20.6237 67.5883 20.0388 66.5159 18.8688C65.4597 17.6989 64.9316 16.0578 64.9316 13.9454C64.9316 12.9868 65.0698 12.1012 65.346 11.2888C65.6385 10.4763 66.0447 9.77762 66.5647 9.19266C67.0846 8.59145 67.7264 8.12836 68.4901 7.80338C69.2701 7.47841 70.1556 7.31592 71.1468 7.31592C72.3005 7.31592 73.2998 7.51903 74.1447 7.92525C74.9897 8.33147 75.6559 8.89206 76.1433 9.607C76.6471 10.3057 76.9802 11.1263 77.1426 12.0687C77.3214 13.0111 77.3214 14.0186 77.1426 15.091H68.3683C68.4333 15.8547 68.7014 16.5046 69.1726 17.0408C69.6438 17.5608 70.3506 17.8208 71.2931 17.8208ZM73.9497 12.7268C73.9497 12.3206 73.8766 11.9631 73.7304 11.6544C73.5841 11.3294 73.3892 11.0694 73.1454 10.8744C72.9017 10.6632 72.6092 10.5088 72.268 10.4113C71.943 10.3138 71.6018 10.2651 71.2443 10.2651C70.3831 10.2813 69.7088 10.5169 69.2213 10.9719C68.7501 11.4106 68.4739 11.9956 68.3926 12.7268H73.9497Z" fill="#BDC2D1"/>
<path d="M59.748 19.1125C59.2606 19.665 58.6756 20.055 57.9932 20.2824C57.3107 20.5099 56.5714 20.6237 55.7752 20.6237C54.979 20.6237 54.1991 20.5018 53.4354 20.2581C52.6879 19.9981 52.038 19.5837 51.4855 19.015C50.8681 18.3651 50.4375 17.6176 50.1937 16.7727C49.95 15.9278 49.8281 15.0584 49.8281 14.1648C49.8281 12.0524 50.4131 10.3625 51.583 9.09512C52.0867 8.54266 52.7367 8.11207 53.5329 7.80334C54.3453 7.49461 55.2146 7.34837 56.1408 7.36462C56.742 7.33212 57.392 7.43774 58.0907 7.68147C58.7894 7.92521 59.3906 8.33143 59.8943 8.90014L60.2599 7.58398H63.2334V19.6244C63.2334 20.1443 63.2009 20.6562 63.1359 21.1599C63.0872 21.6798 62.9978 22.1754 62.8678 22.6467C62.7378 23.1341 62.5428 23.5972 62.2829 24.0359C61.9904 24.5721 61.6329 25.0271 61.2104 25.4008C60.8042 25.7746 60.3492 26.0833 59.8455 26.327C59.3418 26.587 58.8056 26.7739 58.2369 26.8876C57.6682 27.0013 57.0914 27.0582 56.5064 27.0582C55.7589 27.0582 55.044 26.9688 54.3616 26.7901C53.6791 26.6276 53.0535 26.3514 52.4848 25.9614C51.9323 25.5877 51.4693 25.1084 51.0955 24.5234C50.7381 23.9384 50.5025 23.2397 50.3887 22.4273H54.0447C54.1097 22.8173 54.3697 23.1666 54.8246 23.4753C55.2796 23.7841 55.8321 23.9384 56.482 23.9384C57.1807 23.9384 57.7494 23.8003 58.1882 23.5241C58.6431 23.2479 58.9843 22.8823 59.2118 22.4273C59.4393 21.9723 59.5855 21.4524 59.6505 20.8674C59.7155 20.2824 59.748 19.6975 59.748 19.1125ZM56.5551 17.577C57.0914 17.577 57.5626 17.4795 57.9688 17.2845C58.3913 17.0895 58.7325 16.8296 58.9925 16.5046C59.2524 16.1634 59.4474 15.7734 59.5774 15.3347C59.7074 14.8797 59.7724 14.4004 59.7724 13.8967C59.7724 12.8892 59.4881 12.0605 58.9193 11.4106C58.3669 10.7444 57.5707 10.4032 56.5308 10.3869C55.9946 10.3869 55.5152 10.4844 55.0927 10.6794C54.6865 10.8744 54.3453 11.1344 54.0691 11.4593C53.8091 11.7843 53.6141 12.1662 53.4841 12.6049C53.3541 13.0436 53.2891 13.5148 53.2891 14.0185C53.2891 14.5547 53.3541 15.0422 53.4841 15.4809C53.6304 15.9034 53.8416 16.2771 54.1178 16.6021C54.394 16.9108 54.7353 17.1545 55.1415 17.3333C55.5477 17.4958 56.0189 17.577 56.5551 17.577Z" fill="#BDC2D1"/>
<path d="M44.9232 18.8445C44.4358 19.4944 43.8427 19.9575 43.144 20.2337C42.4453 20.51 41.6328 20.64 40.7066 20.6237C39.5205 20.5912 38.5293 20.2581 37.7331 19.6244C37.3106 19.2669 36.9775 18.8445 36.7338 18.357C36.5063 17.8533 36.3926 17.2602 36.3926 16.5778C36.4088 15.8791 36.5632 15.2616 36.8557 14.7254C37.1644 14.1729 37.6275 13.718 38.2449 13.3605C38.7649 13.0843 39.3499 12.8893 39.9998 12.7755C40.666 12.6618 41.3891 12.6049 42.169 12.6049H44.8014C44.8501 11.8087 44.6632 11.2156 44.2408 10.8257C43.8345 10.4194 43.2577 10.2082 42.5103 10.192C42.2665 10.192 42.0147 10.2082 41.7547 10.2407C41.4947 10.2732 41.251 10.3382 41.0235 10.4357C40.8123 10.5332 40.6254 10.6713 40.4629 10.85C40.3167 11.0125 40.2192 11.2156 40.1704 11.4594H36.6363C36.7176 10.6794 36.9288 10.0295 37.27 9.50951C37.6275 8.9733 38.0743 8.54271 38.6105 8.21773C39.1468 7.89275 39.7398 7.66527 40.3898 7.53528C41.056 7.38904 41.7384 7.31592 42.4371 7.31592C42.8271 7.31592 43.2252 7.34029 43.6314 7.38904C44.0377 7.42154 44.4358 7.50278 44.8257 7.63277C45.2157 7.74651 45.5813 7.909 45.9225 8.12024C46.28 8.31522 46.6131 8.5752 46.9218 8.90018C47.4743 9.53388 47.8155 10.2651 47.9455 11.0938C48.0917 11.9062 48.1567 12.7024 48.1405 13.4824V20.4287H44.9963L44.9232 18.8445ZM44.8014 14.7498H42.2909C42.0472 14.7498 41.7709 14.7741 41.4622 14.8229C41.1535 14.8716 40.8854 14.961 40.6579 15.091C40.4304 15.221 40.2354 15.3916 40.0729 15.6028C39.9267 15.8141 39.8536 16.074 39.8536 16.3828C39.8536 16.6428 39.9023 16.8702 39.9998 17.0652C40.1136 17.2602 40.2517 17.4227 40.4142 17.5527C40.5929 17.6827 40.8041 17.7883 41.0479 17.8695C41.2916 17.9345 41.5353 17.967 41.7791 17.967C42.2503 17.9833 42.689 17.902 43.0952 17.7233C43.5177 17.5446 43.8833 17.2927 44.192 16.9677C44.387 16.7077 44.5332 16.4153 44.6307 16.0903C44.7445 15.7491 44.8014 15.3022 44.8014 14.7498Z" fill="#BDC2D1"/>
<path fill-rule="evenodd" clip-rule="evenodd" d="M27.0593 14.9984C26.9216 17.4046 26.1436 19.7357 24.7994 21.7474C23.3115 23.9742 21.1967 25.7097 18.7225 26.7346C16.2483 27.7595 13.5257 28.0276 10.899 27.5051C8.27241 26.9827 5.85968 25.6931 3.96598 23.7994C2.07228 21.9056 0.782657 19.4929 0.260187 16.8663C-0.262284 14.2397 0.00586697 11.5171 1.03073 9.04283C2.05559 6.56859 3.79114 4.45383 6.01789 2.96595C8.02966 1.62174 10.3607 0.843753 12.767 0.706055V7.49864C11.7018 7.62117 10.677 7.99549 9.7793 8.59529C8.66592 9.33923 7.79815 10.3966 7.28572 11.6337C6.77328 12.8709 6.63921 14.2321 6.90044 15.5455C7.16168 16.8588 7.80649 18.0651 8.75334 19.012C9.70019 19.9588 10.9066 20.6037 12.2199 20.8649C13.5332 21.1261 14.8945 20.9921 16.1316 20.4796C17.3687 19.9672 18.4261 19.0994 19.17 17.986C19.7698 17.0884 20.1442 16.0636 20.2667 14.9984H27.0593Z" fill="#BDC2D1"/>
<path fill-rule="evenodd" clip-rule="evenodd" d="M20.3078 0.683838H14.7686V7.45417H20.3078V12.9933H27.0781L27.0781 7.45417H27.0783V0.683838H25.8396H20.3078Z" fill="#BDC2D1"/>
</svg>
