<svg width="151" height="31" viewBox="0 0 151 31" fill="none" xmlns="http://www.w3.org/2000/svg">
<path d="M145.54 10.2021H149.09L144.408 23.0658C143.07 26.7705 140.883 28.3914 137.616 28.2113V25.124C139.442 25.1497 140.369 24.3779 140.986 22.6542L135.712 10.2021H139.339L142.684 18.8465L145.54 10.2021Z" fill="#BDC2D1"/>
<path d="M129.733 9.84204C132.46 9.84204 134.596 11.7459 134.596 15.1676V23.0659H131.277V15.5792C131.277 13.8298 130.222 12.9293 128.73 12.9293C127.109 12.9293 125.9 13.8812 125.9 16.1195V23.0659H122.581V10.2022H125.9V11.643C126.672 10.4852 128.01 9.84204 129.733 9.84204Z" fill="#BDC2D1"/>
<path d="M116.252 10.2022H119.571V23.0659H116.252V21.548C115.326 22.7057 113.936 23.4261 112.058 23.4261C108.637 23.4261 105.807 20.4674 105.807 16.6341C105.807 12.8007 108.637 9.84204 112.058 9.84204C113.936 9.84204 115.326 10.5624 116.252 11.7201V10.2022ZM112.676 20.2616C114.734 20.2616 116.252 18.7951 116.252 16.6341C116.252 14.473 114.734 13.0065 112.676 13.0065C110.643 13.0065 109.125 14.473 109.125 16.6341C109.125 18.7951 110.643 20.2616 112.676 20.2616Z" fill="#BDC2D1"/>
<path d="M97.8577 9.84204C101.305 9.84204 104.135 12.8007 104.135 16.6341C104.135 20.4674 101.305 23.4261 97.8577 23.4261C95.9797 23.4261 94.6161 22.7314 93.6899 21.548V28.2113H90.3711V10.2022H93.6899V11.7201C94.6161 10.5367 95.9797 9.84204 97.8577 9.84204ZM97.2403 20.2616C99.2985 20.2616 100.816 18.7951 100.816 16.6341C100.816 14.473 99.2985 13.0065 97.2403 13.0065C95.2078 13.0065 93.6899 14.473 93.6899 16.6341C93.6899 18.7951 95.2078 20.2616 97.2403 20.2616Z" fill="#BDC2D1"/>
<path d="M82.6901 9.84204C85.623 9.84204 87.5526 11.926 87.5526 15.1419V23.0659H84.2337V15.3734C84.2337 13.8555 83.4619 12.9293 82.0726 12.9293C80.6062 12.9293 79.68 13.907 79.68 15.8365V23.0659H76.3612V15.3734C76.3612 13.8555 75.5894 12.9293 74.2001 12.9293C72.7851 12.9293 71.7817 13.907 71.7817 15.8365V23.0659H68.4629V10.2022H71.7817V11.5658C72.5021 10.4852 73.7113 9.84204 75.3578 9.84204C76.9529 9.84204 78.1364 10.511 78.8567 11.6944C79.6543 10.5367 80.9406 9.84204 82.6901 9.84204Z" fill="#BDC2D1"/>
<path d="M59.3106 23.4261C55.5287 23.4261 52.5186 20.4674 52.5186 16.6341C52.5186 12.8007 55.5287 9.84204 59.3106 9.84204C63.0925 9.84204 66.1283 12.8007 66.1283 16.6341C66.1283 20.4674 63.0925 23.4261 59.3106 23.4261ZM59.3106 20.1844C61.2916 20.1844 62.8095 18.718 62.8095 16.6341C62.8095 14.5501 61.2916 13.0837 59.3106 13.0837C57.3553 13.0837 55.8374 14.5501 55.8374 16.6341C55.8374 18.718 57.3553 20.1844 59.3106 20.1844Z" fill="#BDC2D1"/>
<path d="M45.8184 23.4261C41.9078 23.4261 39.0264 20.4674 39.0264 16.6341C39.0264 12.8007 41.9078 9.84204 45.8184 9.84204C48.3397 9.84204 50.5265 11.1799 51.5813 13.1609L48.7256 14.8331C48.211 13.7783 47.1047 13.1094 45.7927 13.1094C43.8116 13.1094 42.3452 14.5759 42.3452 16.6341C42.3452 18.6665 43.8116 20.133 45.7927 20.133C47.1305 20.133 48.2367 19.4898 48.7513 18.435L51.6328 20.0815C50.5265 22.0882 48.3397 23.4261 45.8184 23.4261Z" fill="#BDC2D1"/>
<path fill-rule="evenodd" clip-rule="evenodd" d="M10.7034 3.47217C9.59333 3.47217 8.69347 4.37203 8.69347 5.48206V11.7597H2.29993C1.1899 11.7597 0.290039 12.6596 0.290039 13.7696V28.5886C0.290039 29.6987 1.1899 30.5985 2.29994 30.5985H16.9429C18.0529 30.5985 18.9528 29.6987 18.9528 28.5886V22.311H25.3463C26.4563 22.311 27.3562 21.4111 27.3562 20.3011V5.48206C27.3562 4.37203 26.4563 3.47217 25.3463 3.47217H10.7034ZM18.9528 22.311V13.7696C18.9528 12.6596 18.0529 11.7597 16.9429 11.7597H8.69347V20.3011C8.69347 21.4111 9.59333 22.311 10.7034 22.311H18.9528Z" fill="#BDC2D1"/>
</svg>
