<svg width="169" height="38" viewBox="0 0 169 38" fill="none" xmlns="http://www.w3.org/2000/svg">
<path d="M157.804 14.306H160.821L160.939 15.8853C161.332 15.2882 161.819 14.8325 162.4 14.5182C162.997 14.1882 163.657 14.0232 164.38 14.0232C167.319 14.0232 168.78 15.8225 168.764 19.421V20.0574H168.788V26.0917H165.606V20.0574H165.582C165.582 18.926 165.386 18.1403 164.993 17.7003C164.616 17.2446 164.066 17.0167 163.343 17.0167C162.573 17.0167 161.984 17.2682 161.575 17.771C161.182 18.2582 160.986 18.9653 160.986 19.8924V26.0917H157.804V14.306Z" fill="#BDC2D1"/>
<path d="M149.647 26.3745C148.452 26.3745 147.384 26.1153 146.441 25.5967C145.498 25.0624 144.759 24.3317 144.225 23.4046C143.707 22.4617 143.447 21.3931 143.447 20.1989C143.447 19.0046 143.707 17.9439 144.225 17.0167C144.759 16.0739 145.49 15.3432 146.417 14.8246C147.344 14.2903 148.405 14.0232 149.599 14.0232C150.794 14.0232 151.854 14.2903 152.781 14.8246C153.724 15.3432 154.455 16.0739 154.974 17.0167C155.508 17.9439 155.775 19.0046 155.775 20.1989C155.775 21.3931 155.516 22.4617 154.997 23.4046C154.479 24.3317 153.748 25.0624 152.805 25.5967C151.878 26.1153 150.825 26.3745 149.647 26.3745ZM146.724 20.1989C146.724 21.1574 146.991 21.9431 147.525 22.556C148.075 23.1531 148.782 23.4517 149.647 23.4517C150.495 23.4517 151.187 23.1531 151.721 22.556C152.255 21.9431 152.522 21.1574 152.522 20.1989C152.522 19.2403 152.247 18.4624 151.697 17.8653C151.163 17.2525 150.464 16.946 149.599 16.946C148.767 16.946 148.075 17.2525 147.525 17.8653C146.991 18.4624 146.724 19.2403 146.724 20.1989Z" fill="#BDC2D1"/>
<path d="M138.057 14.306H141.239V26.0916H138.057V14.306ZM139.66 12.4438C139.157 12.4438 138.725 12.2631 138.363 11.9017C138.002 11.5403 137.821 11.116 137.821 10.6288C137.821 10.126 138.002 9.69385 138.363 9.33242C138.741 8.971 139.173 8.79028 139.66 8.79028C140.147 8.79028 140.571 8.971 140.933 9.33242C141.294 9.69385 141.475 10.126 141.475 10.6288C141.475 11.116 141.294 11.5403 140.933 11.9017C140.587 12.2631 140.163 12.4438 139.66 12.4438Z" fill="#BDC2D1"/>
<path d="M133.241 26.3745C131.937 26.3745 130.939 26.0524 130.248 25.4081C129.572 24.7638 129.234 23.8367 129.234 22.6267V16.9932H127.349V14.306H129.234V10.6289H132.416V14.306H135.339V16.9932H132.416V21.9195C132.416 22.4381 132.519 22.8231 132.723 23.0745C132.943 23.3103 133.273 23.4281 133.713 23.4281C134.027 23.4281 134.381 23.2867 134.774 23.0038L135.905 25.3845C135.512 25.6831 135.08 25.9188 134.609 26.0917C134.137 26.2802 133.681 26.3745 133.241 26.3745Z" fill="#BDC2D1"/>
<path d="M122.819 24.7481C122.159 25.8324 121.075 26.3745 119.566 26.3745C118.152 26.3745 117.052 26.0603 116.266 25.4317C115.496 24.8031 115.111 23.9153 115.111 22.7681C115.111 21.5267 115.528 20.5839 116.361 19.9396C117.193 19.2953 118.372 18.9732 119.896 18.9732H122.701C122.481 17.5117 121.766 16.781 120.556 16.781C119.519 16.781 118.733 17.221 118.199 18.101L115.394 17.1346C115.771 16.2546 116.384 15.516 117.233 14.9189C118.097 14.3218 119.205 14.0232 120.556 14.0232C122.316 14.0232 123.652 14.5182 124.563 15.5082C125.475 16.4825 125.915 17.8339 125.883 19.5624L125.836 26.0917H122.866L122.819 24.7481ZM118.364 22.6739C118.364 23.0038 118.521 23.271 118.836 23.4753C119.15 23.6638 119.582 23.7581 120.132 23.7581C120.619 23.7581 121.059 23.6403 121.452 23.4046C121.861 23.1688 122.183 22.8624 122.418 22.4853C122.654 22.1081 122.772 21.7153 122.772 21.3067H121.028C120.069 21.3067 119.386 21.4246 118.977 21.6603C118.568 21.8803 118.364 22.2181 118.364 22.6739Z" fill="#BDC2D1"/>
<path d="M108.584 26.3745C107.358 26.3745 106.266 26.1153 105.307 25.5967C104.349 25.0624 103.595 24.3317 103.045 23.4046C102.51 22.4617 102.243 21.3931 102.243 20.1989C102.243 19.0046 102.51 17.9439 103.045 17.0167C103.579 16.0739 104.325 15.3432 105.284 14.8246C106.242 14.2903 107.327 14.0232 108.537 14.0232C109.747 14.0232 110.831 14.3218 111.79 14.9189C112.764 15.516 113.471 16.3567 113.911 17.441L110.917 18.5017C110.697 18.046 110.36 17.6846 109.904 17.4175C109.448 17.1503 108.945 17.0167 108.395 17.0167C107.547 17.0167 106.855 17.3153 106.321 17.9125C105.787 18.4939 105.52 19.256 105.52 20.1989C105.52 21.126 105.787 21.8881 106.321 22.4853C106.871 23.0824 107.578 23.381 108.442 23.381C108.992 23.381 109.495 23.2396 109.951 22.9567C110.407 22.6581 110.745 22.2653 110.965 21.7781L113.982 22.8389C113.526 23.9546 112.819 24.8267 111.86 25.4553C110.902 26.0681 109.81 26.3745 108.584 26.3745Z" fill="#BDC2D1"/>
<path d="M96.8539 14.306H100.036V26.0916H96.8539V14.306ZM98.4567 12.4438C97.9539 12.4438 97.5217 12.2631 97.1603 11.9017C96.7989 11.5403 96.6182 11.116 96.6182 10.6288C96.6182 10.126 96.7989 9.69385 97.1603 9.33242C97.5374 8.971 97.9696 8.79028 98.4567 8.79028C98.9439 8.79028 99.3681 8.971 99.7296 9.33242C100.091 9.69385 100.272 10.126 100.272 10.6288C100.272 11.116 100.091 11.5403 99.7296 11.9017C99.3839 12.2631 98.9596 12.4438 98.4567 12.4438Z" fill="#BDC2D1"/>
<path d="M90.8184 9.12012H94.0005V26.0914H90.8184V9.12012Z" fill="#BDC2D1"/>
<path d="M76.7793 14.306H79.7964L79.9143 15.9325C80.3071 15.3196 80.8021 14.8482 81.3993 14.5182C82.0121 14.1882 82.7114 14.0232 83.4971 14.0232C84.5657 14.0232 85.5007 14.2746 86.3021 14.7775C87.1192 15.2803 87.7399 15.9953 88.1642 16.9225C88.6042 17.8496 88.8242 18.9417 88.8242 20.1989C88.8242 21.4403 88.6042 22.5324 88.1642 23.4753C87.7399 24.4024 87.1192 25.1174 86.3021 25.6203C85.5007 26.1231 84.5657 26.3745 83.4971 26.3745C82.7271 26.3745 82.0436 26.2174 81.4464 25.9031C80.8493 25.5731 80.3543 25.1095 79.9614 24.5124V30.8059H76.7793V14.306ZM79.9614 20.1989C79.9614 21.1574 80.2128 21.9431 80.7157 22.556C81.2343 23.1531 81.8943 23.4517 82.6957 23.4517C83.5128 23.4517 84.1885 23.1453 84.7228 22.5324C85.2571 21.9196 85.5242 21.1417 85.5242 20.1989C85.5242 19.256 85.2571 18.486 84.7228 17.8889C84.2043 17.276 83.5364 16.9696 82.7193 16.9696C81.9021 16.9696 81.2343 17.2682 80.7157 17.8653C80.2128 18.4624 79.9614 19.2403 79.9614 20.1989Z" fill="#BDC2D1"/>
<path d="M62.623 14.306H65.6402L65.758 15.9325C66.1509 15.3196 66.6459 14.8482 67.243 14.5182C67.8559 14.1882 68.5552 14.0232 69.3409 14.0232C70.4094 14.0232 71.3444 14.2746 72.1458 14.7775C72.963 15.2803 73.5837 15.9953 74.008 16.9225C74.448 17.8496 74.668 18.9417 74.668 20.1989C74.668 21.4403 74.448 22.5324 74.008 23.4753C73.5837 24.4024 72.963 25.1174 72.1458 25.6203C71.3444 26.1231 70.4094 26.3745 69.3409 26.3745C68.5709 26.3745 67.8873 26.2174 67.2902 25.9031C66.693 25.5731 66.198 25.1095 65.8052 24.5124V30.8059H62.623V14.306ZM65.8052 20.1989C65.8052 21.1574 66.0566 21.9431 66.5594 22.556C67.078 23.1531 67.738 23.4517 68.5394 23.4517C69.3566 23.4517 70.0323 23.1453 70.5666 22.5324C71.1008 21.9196 71.368 21.1417 71.368 20.1989C71.368 19.256 71.1008 18.486 70.5666 17.8889C70.048 17.276 69.3801 16.9696 68.563 16.9696C67.7459 16.9696 67.078 17.2682 66.5594 17.8653C66.0566 18.4624 65.8052 19.2403 65.8052 20.1989Z" fill="#BDC2D1"/>
<path d="M56.9852 24.7481C56.3252 25.8324 55.2409 26.3745 53.7323 26.3745C52.318 26.3745 51.218 26.0603 50.4323 25.4317C49.6623 24.8031 49.2773 23.9153 49.2773 22.7681C49.2773 21.5267 49.6938 20.5839 50.5266 19.9396C51.3595 19.2953 52.538 18.9732 54.0623 18.9732H56.8673C56.6473 17.5117 55.9323 16.781 54.7223 16.781C53.6852 16.781 52.8995 17.221 52.3652 18.101L49.5602 17.1346C49.9373 16.2546 50.5502 15.516 51.3988 14.9189C52.263 14.3218 53.3709 14.0232 54.7223 14.0232C56.4823 14.0232 57.818 14.5182 58.7294 15.5082C59.6408 16.4825 60.0808 17.8339 60.0494 19.5624L60.0023 26.0917H57.0323L56.9852 24.7481ZM52.5302 22.6739C52.5302 23.0038 52.6873 23.271 53.0016 23.4753C53.3159 23.6638 53.748 23.7581 54.298 23.7581C54.7852 23.7581 55.2252 23.6403 55.618 23.4046C56.0266 23.1688 56.3487 22.8624 56.5844 22.4853C56.8202 22.1081 56.938 21.7153 56.938 21.3067H55.1937C54.2352 21.3067 53.5516 21.4246 53.143 21.6603C52.7345 21.8803 52.5302 22.2181 52.5302 22.6739Z" fill="#BDC2D1"/>
<path fill-rule="evenodd" clip-rule="evenodd" d="M17.0964 30.2591V23.2104H17.0964V30.2591H27.9144C34.5208 30.2591 39.8762 24.9036 39.8762 18.2973C39.8762 12.3227 35.0328 7.47925 29.0582 7.47925H28.4863C25.913 7.47925 23.5389 8.33265 21.6318 9.77188C20.2093 8.35504 18.2475 7.47925 16.0812 7.47925H15.8297C11.8025 7.47925 8.50554 10.6058 8.2337 14.564C4.37849 14.9387 1.36523 18.1885 1.36523 22.1421C1.36523 26.625 4.99933 30.2591 9.48221 30.2591H17.0964Z" fill="#BDC2D1"/>
</svg>
