<svg width="131" height="32" viewBox="0 0 131 32" fill="none" xmlns="http://www.w3.org/2000/svg">
<path d="M122.972 24.6829C121.616 24.6829 120.427 24.395 119.405 23.8192C118.384 23.2248 117.594 22.3982 117.037 21.3395C116.48 20.2807 116.201 19.0362 116.201 17.606C116.201 16.1943 116.48 14.9591 117.037 13.9004C117.594 12.8231 118.384 11.9872 119.405 11.3928C120.427 10.7799 121.616 10.4734 122.972 10.4734C124.346 10.4734 125.535 10.7799 126.538 11.3928C127.559 12.0058 128.349 12.8509 128.906 13.9282C129.463 14.987 129.742 16.2036 129.742 17.5781C129.742 17.7825 129.733 17.9868 129.714 18.1911C129.714 18.3768 129.696 18.5347 129.658 18.6647H119.182V15.9343H126.9L126.343 17.2438C126.343 16.0922 126.064 15.1542 125.507 14.4298C124.968 13.7054 124.123 13.3431 122.972 13.3431C121.969 13.3431 121.161 13.6589 120.548 14.2904C119.935 14.9034 119.628 15.73 119.628 16.7701V18.2468C119.628 19.3427 119.935 20.2064 120.548 20.838C121.179 21.4509 122.034 21.7574 123.111 21.7574C124.058 21.7574 124.801 21.5624 125.34 21.1723C125.878 20.7822 126.343 20.2993 126.733 19.7235L129.268 21.1723C128.655 22.3053 127.82 23.1783 126.761 23.7913C125.721 24.3857 124.458 24.6829 122.972 24.6829Z" fill="#BDC2D1"/>
<path d="M110.406 10.7799L111.326 14.5412V24.4043H107.676V10.7799H110.406ZM110.573 16.4079L109.905 16.1015V13.3153L110.155 13.0088C110.36 12.6745 110.666 12.3123 111.075 11.9222C111.502 11.5321 111.985 11.1978 112.524 10.9192C113.081 10.622 113.657 10.4734 114.251 10.4734C114.548 10.4734 114.818 10.492 115.059 10.5291C115.301 10.5663 115.486 10.6313 115.616 10.7241V14.0397H114.725C113.517 14.0397 112.589 14.2347 111.939 14.6248C111.289 14.9963 110.833 15.5907 110.573 16.4079Z" fill="#BDC2D1"/>
<path d="M96.7892 24.7388C95.7676 24.7388 94.9503 24.5809 94.3373 24.2651C93.7244 23.9493 93.2507 23.5314 92.9164 23.0113C92.6006 22.4727 92.387 21.8597 92.2756 21.1725C92.1641 20.4852 92.1084 19.7701 92.1084 19.0271V10.78H95.7583V19.055C95.7583 19.8908 95.9347 20.4481 96.2877 20.7267C96.6591 21.0053 97.0956 21.1446 97.5972 21.1446C98.0615 21.1446 98.5259 21.061 98.9902 20.8938C99.4546 20.7267 99.8911 20.4852 100.3 20.1694C100.727 19.8351 101.08 19.4543 101.358 19.0271L101.804 20.9496H100.913V10.78H104.563V24.4044H101.832L101.08 21.8133L102.25 21.8411C101.786 22.3798 101.256 22.872 100.662 23.3178C100.086 23.7636 99.4639 24.1165 98.7952 24.3766C98.1451 24.618 97.4764 24.7388 96.7892 24.7388Z" fill="#BDC2D1"/>
<path d="M87.2952 24.6552C85.9021 24.6552 84.7969 24.293 83.9796 23.5686C83.1809 22.8256 82.7816 21.6461 82.7816 20.0301V10.9472L82.7258 10.78L83.4781 7.57593H86.4314V19.445C86.4314 20.0394 86.5707 20.4759 86.8494 20.7545C87.1466 21.0146 87.518 21.1446 87.9638 21.1446C88.261 21.1446 88.5304 21.126 88.7718 21.0889C89.0133 21.0331 89.2269 20.9774 89.4126 20.9217V24.3208C89.1155 24.4323 88.7997 24.5159 88.4654 24.5716C88.131 24.6273 87.7409 24.6552 87.2952 24.6552ZM80.6641 14.1513V10.78H89.4126V14.1513H80.6641Z" fill="#BDC2D1"/>
<path d="M74.4287 10.4734C75.3574 10.4734 76.1004 10.6313 76.6576 10.947C77.2334 11.2628 77.6606 11.69 77.9392 12.2287C78.2364 12.7673 78.4315 13.3803 78.5243 14.0676C78.6172 14.7362 78.6636 15.4328 78.6636 16.1572V24.4043H75.0138V16.1293C75.0138 15.2935 74.8466 14.7362 74.5122 14.4576C74.1965 14.179 73.7878 14.0397 73.2863 14.0397C72.822 14.0397 72.3483 14.1326 71.8654 14.3183C71.3824 14.4855 70.9274 14.7362 70.5001 15.0706C70.0915 15.3863 69.7386 15.7485 69.4414 16.1572L68.9678 14.2626H69.8872V24.4043H66.2373V10.7799H68.9678L69.72 13.3989L68.5498 13.3431C69.0328 12.7859 69.5807 12.2937 70.1937 11.8665C70.8252 11.4393 71.4939 11.1049 72.1997 10.8635C72.9055 10.6034 73.6485 10.4734 74.4287 10.4734Z" fill="#BDC2D1"/>
<path d="M57.2343 24.6829C55.8783 24.6829 54.6896 24.395 53.668 23.8192C52.6464 23.2248 51.857 22.3982 51.2997 21.3395C50.7425 20.2807 50.4639 19.0362 50.4639 17.606C50.4639 16.1943 50.7425 14.9591 51.2997 13.9004C51.857 12.8231 52.6464 11.9872 53.668 11.3928C54.6896 10.7799 55.8783 10.4734 57.2343 10.4734C58.6088 10.4734 59.7975 10.7799 60.8006 11.3928C61.8222 12.0058 62.6116 12.8509 63.1688 13.9282C63.7261 14.987 64.0047 16.2036 64.0047 17.5781C64.0047 17.7825 63.9954 17.9868 63.9768 18.1911C63.9768 18.3768 63.9582 18.5347 63.9211 18.6647H53.4451V15.9343H61.1628L60.6055 17.2438C60.6055 16.0922 60.3269 15.1542 59.7697 14.4298C59.231 13.7054 58.3859 13.3431 57.2343 13.3431C56.2312 13.3431 55.4233 13.6589 54.8103 14.2904C54.1973 14.9034 53.8909 15.73 53.8909 16.7701V18.2468C53.8909 19.3427 54.1973 20.2064 54.8103 20.838C55.4418 21.4509 56.2963 21.7574 57.3736 21.7574C58.3209 21.7574 59.0639 21.5624 59.6025 21.1723C60.1412 20.7822 60.6055 20.2993 60.9956 19.7235L63.531 21.1723C62.9181 22.3053 62.0822 23.1783 61.0235 23.7913C59.9833 24.3857 58.7202 24.6829 57.2343 24.6829Z" fill="#BDC2D1"/>
<path d="M49.9058 10.78L44.9185 24.4044H41.4079L36.1699 10.78H40.0148L43.5811 21.2003H42.7174L46.1444 10.78H49.9058Z" fill="#BDC2D1"/>
<path fill-rule="evenodd" clip-rule="evenodd" d="M9.95011 3.16748C9.4753 3.16748 9.09039 3.55239 9.09039 4.02721V12.1946C4.10494 12.1947 0.0634766 16.2362 0.0634766 21.2217C0.0634766 26.2072 4.10506 30.2488 9.09061 30.2488H17.258C17.7328 30.2488 18.1177 29.8639 18.1177 29.3891V21.2217C23.1032 21.2216 27.1446 17.1801 27.1446 12.1946C27.1446 7.20906 23.1031 3.16748 18.1175 3.16748H9.95011ZM18.1177 21.2217V13.0543C18.1177 12.5795 17.7328 12.1946 17.258 12.1946H9.09061C9.09053 12.1946 9.09046 12.1946 9.09039 12.1946V20.362C9.09039 20.8368 9.4753 21.2217 9.95011 21.2217H18.1175C18.1176 21.2217 18.1177 21.2217 18.1177 21.2217Z" fill="#BDC2D1"/>
<path d="M9.85368 3.16748C9.43236 3.16748 9.09082 3.50902 9.09082 3.93034L9.09082 12.1946H17.3551C17.7764 12.1946 18.118 12.5362 18.118 12.9575L18.118 21.2217C23.1035 21.2217 27.1451 17.1802 27.1451 12.1946C27.1451 7.20906 23.1035 3.16748 18.118 3.16748H9.85368Z" fill="#BDC2D1"/>
</svg>
