<svg width="117" height="76" viewBox="0 0 117 76" fill="none" xmlns="http://www.w3.org/2000/svg">
<circle opacity="0.04" cx="82" cy="38" r="35" fill="#F20823"/>
<path d="M86.3846 26.6154C86.3846 29.6347 85.1852 32.5305 83.0501 34.6655C80.9151 36.8005 78.0194 38 75 38" stroke="#F20823" stroke-linecap="round" stroke-linejoin="round"/>
<path d="M29.4614 20.9231C33.0008 19.1712 36.8968 18.2598 40.846 18.2598C44.7953 18.2598 48.6912 19.1712 52.2307 20.9231" stroke="#F20823" stroke-linecap="round" stroke-linejoin="round"/>
<path d="M22.3459 32.3077C22.0645 32.3077 21.7893 32.3911 21.5553 32.5475C21.3213 32.7039 21.1389 32.9261 21.0312 33.1862C20.9235 33.4462 20.8953 33.7323 20.9502 34.0084C21.0051 34.2844 21.1406 34.538 21.3397 34.737C21.5387 34.936 21.7923 35.0716 22.0683 35.1265C22.3444 35.1814 22.6305 35.1532 22.8905 35.0455C23.1505 34.9378 23.3728 34.7554 23.5292 34.5214C23.6855 34.2874 23.769 34.0122 23.769 33.7308C23.769 33.3533 23.6191 32.9914 23.3522 32.7245C23.0853 32.4576 22.7234 32.3077 22.3459 32.3077Z" fill="#F20823"/>
<path d="M28.1333 9.09446C23.6782 1.02277 12.3846 1 12.3846 1L14.7602 17.6367C11.6538 21.022 9.35021 25.0637 8.02051 29.4615H1V52.2308H10.4492C12.4144 55.6763 15.0005 58.7283 18.0769 61.2322V72.1538C18.0769 72.9087 18.3768 73.6326 18.9105 74.1664C19.4443 74.7001 20.1682 75 20.9231 75H26.6154C27.3702 75 28.0942 74.7001 28.6279 74.1664C29.1617 73.6326 29.4615 72.9087 29.4615 72.1538V67.4444C36.848 69.9144 44.8353 69.929 52.2308 67.4862V72.1538C52.2308 72.9087 52.5306 73.6326 53.0644 74.1664C53.5981 74.7001 54.3221 75 55.0769 75H60.7692C61.5241 75 62.248 74.7001 62.7818 74.1664C63.3155 73.6326 63.6154 72.9087 63.6154 72.1538V61.2891C67.1264 58.4989 69.9703 54.9603 71.9399 50.9313C73.9094 46.9022 74.9549 42.4844 75 38C75 13.3561 48.2462 2.36995 28.1333 9.09446Z" stroke="#F20823" stroke-linecap="round" stroke-linejoin="round"/>
</svg>
