<svg width="20" height="20" viewBox="0 0 20 20" fill="none" xmlns="http://www.w3.org/2000/svg">
<path d="M12.4305 18.302L12.4401 18.3076C13.2897 18.8485 14.2984 19.0834 15.2996 18.9736C16.3007 18.8638 17.2345 18.4158 17.9467 17.7036L18.5658 17.0845C18.8423 16.8076 18.9977 16.4323 18.9977 16.041C18.9977 15.6497 18.8423 15.2744 18.5658 14.9975L15.9573 12.3906C15.6804 12.1141 15.3051 11.9588 14.9138 11.9588C14.5225 11.9588 14.1472 12.1141 13.8703 12.3906C13.7334 12.5277 13.5708 12.6365 13.3918 12.7107C13.2129 12.7849 13.021 12.8231 12.8273 12.8231C12.6335 12.8231 12.4416 12.7849 12.2627 12.7107C12.0837 12.6365 11.9211 12.5277 11.7842 12.3906L7.61023 8.21588C7.33371 7.93901 7.17839 7.56371 7.17839 7.1724C7.17839 6.78109 7.33371 6.40579 7.61023 6.12892C7.74732 5.992 7.85608 5.8294 7.93028 5.65042C8.00448 5.47144 8.04267 5.27959 8.04267 5.08583C8.04267 4.89208 8.00448 4.70023 7.93028 4.52125C7.85608 4.34227 7.74732 4.17967 7.61023 4.04275L5.00253 1.43184C4.72566 1.15532 4.35035 1 3.95904 1C3.56773 1 3.19243 1.15532 2.91556 1.43184L2.29643 2.05097C1.58437 2.7632 1.13641 3.6969 1.02647 4.698C0.916526 5.6991 1.15118 6.70777 1.6917 7.55756L1.69809 7.56716C4.5565 11.7985 8.19975 15.4426 12.4305 18.302V18.302Z" stroke="#F20823" stroke-width="1.5" stroke-linecap="round" stroke-linejoin="round"/>
</svg>
