<svg width="24" height="20" viewBox="0 0 24 20" fill="none" xmlns="http://www.w3.org/2000/svg">
<path fill-rule="evenodd" clip-rule="evenodd" d="M23.8236 3.03898C22.9833 3.41822 22.0801 3.67362 21.1322 3.78874C22.1001 3.19957 22.8434 2.266 23.1926 1.15345C22.2876 1.69908 21.2845 2.09573 20.2166 2.30954C19.3629 1.3837 18.1438 0.805176 16.7962 0.805176C13.7706 0.805176 11.5474 3.67459 12.2308 6.65331C8.33729 6.45499 4.88446 4.55882 2.57274 1.67683C1.34503 3.81777 1.93604 6.61849 4.02221 8.03674C3.25512 8.01159 2.53182 7.79779 1.90083 7.44081C1.84944 9.64752 3.40549 11.712 5.65916 12.1716C4.99962 12.3534 4.27727 12.396 3.54254 12.2528C4.13832 14.1451 5.86854 15.5218 7.92044 15.5605C5.95039 17.1306 3.46831 17.832 0.982422 17.534C3.05621 18.8855 5.52021 19.674 8.16598 19.674C16.8666 19.674 21.7822 12.2045 21.4853 5.50497C22.4008 4.8326 23.1955 3.99384 23.8236 3.03898Z" fill="#F20823"/>
</svg>
